<svg version="1.1" id="Layer_1" xmlns="http://www.w3.org/2000/svg" xmlns:xlink="http://www.w3.org/1999/xlink" x="0px" y="0px" viewBox="0 0 95 95" style="enable-background:new 0 0 95 95;" xml:space="preserve">
 <style type="text/css">
  .st0{fill:#00805F;}
	.st1{fill:#FAAE17;}
 </style>
 <g>
  <g transform="translate(-152 -64)">
   <g>
    <g>
     <path id="_x38_qbda" class="st0" d="M160.4,111.5l39.1,39.1l39.1-39.1l-39.1-39.1L160.4,111.5z M171.8,128.6l-4-4l-13.1-13.1
					l13.1-13.1l4-4V83.8h10.6l17-17.1l13.1,13.1l4,4h10.6v10.6l4,4l13.1,13.1l-13.1,13.1l-4,4v10.6h-10.6l-4,4l-13.1,13.1
					l-13.1-13.1l-4-4h-10.6V128.6z M199.5,64l-15.9,15.9h-15.7v15.7L152,111.5l15.9,15.9v15.7h15.7l15.9,15.9l15.9-15.9h15.7v-15.7
					l15.9-15.9l-15.9-15.9V79.9h-15.7L199.5,64z">
     </path>
    </g>
   </g>
   <g>
    <g>
     <path id="_x38_qbdb" class="st1" d="M154.8,111.5l17-17V83.8h10.6l17-17l17,17h10.6v10.6l17,17l-17,17v10.6h-10.6l-17,17l-17-17
					h-10.6v-10.6L154.8,111.5z M171.8,123c6.6-8,16.6-13,27.7-13c8.6,0,15.6-7,15.6-15.6c0-4-1.6-7.7-4.1-10.5l-11.5-11.5L188,83.8
					L171.8,100l-11.5,11.5L171.8,123L171.8,123z M227.2,100.1c-6.6,8-16.6,13-27.7,13c-8.6,0-15.6,7-15.6,15.6c0,4,1.6,7.7,4.1,10.5
					h0l11.5,11.5l11.5-11.5l16.2-16.2l11.5-11.5L227.2,100.1z">
     </path>
    </g>
   </g>
  </g>
 </g>
</svg>