<?xml version="1.0" encoding="UTF-8"?>
<svg version="1.1" xmlns="http://www.w3.org/2000/svg" width="1549" height="1550">
<path d="M0 0 C1.62629628 0.17876378 3.25259853 0.35747322 4.87890625 0.53613281 C88.99358916 9.91426806 171.31065969 32.07250289 248 68 C249.19141602 68.55655273 250.38283203 69.11310547 251.61035156 69.68652344 C278.61400533 82.33895683 304.68132956 96.42386723 330.015625 112.14794922 C332.58830381 113.74450857 335.16707467 115.3302594 337.75 116.91015625 C347.05507441 122.62595783 356.05615808 128.73719127 365 135 C366.44270056 136.00391743 367.88540902 137.0078235 369.328125 138.01171875 C377.50950104 143.72495483 385.54399291 149.57516548 393.39208984 155.73925781 C395.07547502 157.05917901 396.76577453 158.36987117 398.45703125 159.6796875 C405.40946562 165.08126807 412.195293 170.64299494 418.890625 176.359375 C421.87459101 178.90375551 424.89947395 181.39531387 427.9375 183.875 C428.81921875 184.59558594 429.7009375 185.31617188 430.609375 186.05859375 C432.07174933 187.24617552 433.53929707 188.42746609 435.015625 189.59765625 C436.37845079 190.68982738 437.69662287 191.83752851 439 193 C439 193.66 439 194.32 439 195 C439.59772217 195.27626221 440.19544434 195.55252441 440.8112793 195.8371582 C444.30229161 197.69189235 446.9714867 200.4796483 449.8125 203.1875 C450.51810059 203.85587891 451.22370117 204.52425781 451.95068359 205.21289062 C460.12536613 213.02264699 468.1220856 221.01506259 476.125 229 C477.14770493 230.01868668 477.14770493 230.01868668 478.19107056 231.05795288 C485.01433076 237.86091156 491.77587406 244.63678867 498 252 C499.61967817 253.77570221 501.24411718 255.54708307 502.875 257.3125 C506.97199927 261.80498638 510.86120426 266.41907282 514.67578125 271.15234375 C516.67252716 273.59877698 518.71499864 275.9954728 520.78271484 278.38183594 C528.00012881 286.74657981 534.55954643 295.5823888 541.12109375 304.46533203 C542.88090266 306.8393362 544.6561302 309.20074718 546.4375 311.55859375 C572.46527667 346.17689312 594.34966833 383.4612235 614 422 C614.75899746 423.47662271 615.5180944 424.95319429 616.27734375 426.4296875 C653.32705445 498.95428898 676.87652405 578.71792107 693.85925293 718.9697876 C693.98990164 720.85433581 694.13919277 722.73756632 694.29003906 724.62060547 C695.32878131 738.51704073 695.24587295 752.44713349 695.25 766.375 C695.25044186 767.05894459 695.25088371 767.74288918 695.25133896 768.44755936 C695.25954325 792.73133379 694.54679431 816.83522498 692 841 C691.91514343 841.80580505 691.83028687 842.61161011 691.74285889 843.4418335 C682.83155623 926.76778936 660.94594887 1008.18235236 593 1147 C592.51789063 1147.825 592.03578125 1148.65 591.5390625 1149.5 C579.82175803 1169.51442277 567.47222248 1189.17770944 553.6328125 1207.79785156 C551.89961488 1210.13538783 550.18299175 1212.48446942 548.46875 1214.8359375 C536.89095367 1230.68916887 524.86095935 1246.16043152 512 1261 C507.4934738 1260.12808515 505.32331916 1258.09672921 502 1255 C502 1254.34 502 1253.68 502 1253 C501.34 1253 500.68 1253 500 1253 C498.35077697 1251.07640896 496.82309302 1249.15354273 495.3125 1247.125 C494.86116699 1246.5263916 494.40983398 1245.9277832 493.94482422 1245.31103516 C492.62118186 1243.5469646 491.30856276 1241.77527481 490 1240 C489.40832031 1239.20078125 488.81664062 1238.4015625 488.20703125 1237.578125 C478.23378999 1223.6894631 469.48625713 1208.83112228 461 1194 C460.48163574 1193.10007324 459.96327148 1192.20014648 459.42919922 1191.27294922 C418.42511427 1119.8161641 387.11658626 1042.16199439 368 962 C367.7313916 960.88270508 367.4627832 959.76541016 367.18603516 958.61425781 C360.15663503 929.08297165 355.2362008 899.17317438 352 869 C351.88672363 867.95215332 351.77344727 866.90430664 351.65673828 865.82470703 C350.28171204 852.5805759 349.70836554 839.29027213 349.2762146 825.98657227 C349.2179673 824.23085787 349.15467316 822.47530219 349.08584595 820.7199707 C347.72561099 784.88249753 366.28931201 757.61930081 387 730 C387.41217773 729.44602539 387.82435547 728.89205078 388.24902344 728.32128906 C393.63041082 721.10129713 399.31508812 714.21665706 405.25341797 707.44750977 C408.4188816 703.83843341 411.49962926 700.1865871 414.5 696.4375 C419.07781833 690.77857328 424.03380468 685.50716066 429.01171875 680.203125 C431.20460254 677.86386908 433.34831373 675.49547641 435.4375 673.0625 C440.5044987 667.19280844 445.88452751 661.60049398 451.18359375 655.94140625 C454.024886 652.90458422 456.85950836 649.86170968 459.6875 646.8125 C460.42649536 646.02033081 460.42649536 646.02033081 461.18041992 645.2121582 C463.14752711 643.08793053 465.01040782 640.985591 466.70703125 638.63671875 C467.13371094 638.09660156 467.56039063 637.55648437 468 637 C468.66 637 469.32 637 470 637 C470.36544922 636.14148438 470.36544922 636.14148438 470.73828125 635.265625 C472.22517298 632.59566462 473.98083908 630.86170993 476.1875 628.75 C479.66459122 625.35042355 482.9351176 621.87836863 486.09765625 618.1875 C489.30819266 614.49571275 492.64472328 610.9170524 495.9609375 607.3203125 C498.01577328 605.18053118 498.01577328 605.18053118 499 603 C499.66 603 500.32 603 501 603 C501.23847656 602.44054687 501.47695312 601.88109375 501.72265625 601.3046875 C503.28591515 598.48412863 505.21581151 596.46399365 507.4375 594.125 C512.32959376 588.87364031 516.7579743 583.34347024 521.14453125 577.66796875 C523.06626434 575.1829347 525.02155794 572.73135076 527.01171875 570.30078125 C533.49459 562.37254514 539.45512663 554.26942399 544.95849609 545.62939453 C545.85897199 544.22063313 546.78105964 542.82572956 547.70703125 541.43359375 C559.74911623 522.65556678 567.06625295 498.07143483 562.8125 475.9375 C560.02920635 464.13427322 554.37379585 453.78418207 543.9375 447.0625 C534.83675647 442.55920105 524.38197802 441.99232005 514.76953125 444.96484375 C497.96146572 451.24712494 487.09743124 463.64007786 478.5 479 C458.11181598 514.61854424 458.11181598 514.61854424 446 529 C445.00419922 530.18722656 445.00419922 530.18722656 443.98828125 531.3984375 C433.37326153 543.57032678 421.76974312 555.10739036 409 565 C407.20383069 566.452784 405.41227288 567.91128514 403.625 569.375 C402.7175 570.11492188 401.81 570.85484375 400.875 571.6171875 C398.85486196 573.29148669 396.85741953 574.97778523 394.875 576.6953125 C387.5799633 583.00530942 380.06315876 588.68430412 372 594 C371.35015137 594.433125 370.70030273 594.86625 370.03076172 595.3125 C354.69343788 605.52046595 339.34664957 614.63885409 322 621 C320.82824219 621.43570313 319.65648437 621.87140625 318.44921875 622.3203125 C308.74766152 625.52059551 297.20092982 627.19466541 287.21875 624.15234375 C282.26423629 621.42551251 279.60945336 617.34045889 278 612 C273.4564627 592.05891964 286.08023343 571.13606906 295 554 C295.57838623 552.88238281 295.57838623 552.88238281 296.16845703 551.7421875 C303.29462772 537.99002914 310.76138225 524.43922963 318.42578125 510.98046875 C339.00189633 476.5726708 339.00189633 476.5726708 341.33984375 437.65625 C337.69639669 426.42623136 330.3252026 419.34412737 320 414 C300.78454021 405.82064935 276.99824999 409.13423318 258.0559082 416.39404297 C216.61317284 433.24510537 187.47641624 471.65304304 170.00195312 511.58300781 C158.97556204 538.18175824 160.867673 560.19642693 170.72241211 586.87133789 C177.05098082 604.09773065 182.32067065 625.41261099 175.30859375 643.24609375 C168.35553249 657.87865552 156.83587079 669.36357475 144 679 C143.21367188 679.59039063 142.42734375 680.18078125 141.6171875 680.7890625 C111.91579863 702.25640297 76.13485071 716.37759122 40 722 C38.88568604 722.17732666 37.77137207 722.35465332 36.62329102 722.53735352 C25.01828977 724.19774433 13.52163089 724.35523493 1.8125 724.3125 C0.29888885 724.31026428 0.29888885 724.31026428 -1.24530029 724.3079834 C-17.99830567 724.2636151 -34.41514124 723.53888963 -51 721 C-51.92264648 720.86078125 -52.84529297 720.7215625 -53.79589844 720.578125 C-81.31366495 716.22206962 -110.50467709 705.91858385 -128.17578125 683.203125 C-137.67982437 670.10511599 -143.03588903 655.72414872 -148.0803833 640.46569824 C-149.68616066 635.61458164 -151.32585741 630.77489538 -152.9609375 625.93359375 C-153.29523773 624.94162994 -153.62953796 623.94966614 -153.97396851 622.92764282 C-167.62365723 582.48584108 -181.90843854 541.76758806 -202.25 504.125 C-202.72123291 503.25149902 -203.19246582 502.37799805 -203.67797852 501.47802734 C-214.9162663 481.1491699 -230.80627176 464.2584922 -249 450 C-252.68212109 447.01872187 -256.34239521 444.01128106 -260 441 C-260.56638184 440.5373877 -261.13276367 440.07477539 -261.71630859 439.59814453 C-263.50430577 438.13497252 -265.28403714 436.66223868 -267.0625 435.1875 C-267.62308105 434.73133301 -268.18366211 434.27516602 -268.76123047 433.80517578 C-271.58247703 431.4493611 -273.69359922 429.48103066 -275 426 C-275.66 426 -276.32 426 -277 426 C-287.70664588 414.66638837 -295.69719848 401.03433648 -295.47045898 385.18505859 C-294.13037448 354.80266275 -272.4027834 327.10751799 -255.20703125 303.54296875 C-237.30836239 278.58686751 -219.52672565 247.92464687 -224.4609375 216.01953125 C-227.07545748 206.34580733 -232.20819974 198.22192989 -240.734375 192.921875 C-257.77659495 183.48527387 -277.79857658 186.11886565 -295.7734375 191.03125 C-305.38896652 194.01468458 -314.15766816 198.23965348 -323 203 C-324.02738281 203.54398438 -325.05476562 204.08796875 -326.11328125 204.6484375 C-349.81885149 217.80037769 -370.88551172 237.39100427 -387 259 C-387.57492187 259.74507813 -388.14984375 260.49015625 -388.7421875 261.2578125 C-405.84167576 284.8273774 -409.5547957 315.7549024 -405.52783203 343.85107422 C-404.87855178 347.72453245 -404.10437699 351.56450097 -403.30859375 355.41015625 C-403.15283371 356.16625183 -402.99707367 356.92234741 -402.83659363 357.70135498 C-402.04500397 361.52298858 -401.2324872 365.3385401 -400.38842773 369.14892578 C-396.20016175 388.54858176 -397.27047643 405.71770288 -408 423 C-413.22939358 430.67697802 -419.27328205 437.57198186 -425.96484375 444.00390625 C-427.86406723 445.86667631 -429.59212962 447.78536479 -431.3125 449.8125 C-436.20729795 455.52501713 -441.64948507 460.71988658 -447 466 C-447.57234375 466.61230469 -448.1446875 467.22460938 -448.734375 467.85546875 C-450 469 -450 469 -452 469 C-452.23847656 469.56460937 -452.47695313 470.12921875 -452.72265625 470.7109375 C-454.27349823 473.49012221 -456.19507413 475.36463472 -458.4375 477.625 C-497.38570825 519.95022053 -496.48303067 589.4987593 -498.42578125 643.34765625 C-500.21940364 692.53592654 -507.66070515 738.14870544 -521.90423584 785.35971069 C-535.16550669 829.33841505 -541.39256305 872.04765915 -536 918 C-535.89236328 918.93150879 -535.78472656 919.86301758 -535.67382812 920.82275391 C-532.89298106 943.52122171 -526.55327339 965.61271918 -520.7734375 987.68945312 C-509.41779314 1031.08743278 -502.70501626 1074.90702813 -499.25 1119.625 C-499.19074341 1120.39046143 -499.13148682 1121.15592285 -499.07043457 1121.94458008 C-497.50949594 1142.50529492 -496.78927069 1163.06912391 -496.8125 1183.6875 C-496.81310425 1184.69680573 -496.8137085 1185.70611145 -496.81433105 1186.7460022 C-496.91226908 1247.69390861 -503.84633154 1310.028182 -520.6875 1368.75 C-520.94845459 1369.66499268 -521.20940918 1370.57998535 -521.47827148 1371.52270508 C-523.35013147 1377.7029346 -525.95705164 1383.31091044 -529 1389 C-533.60442579 1387.25569815 -537.28943417 1384.98022985 -541.3125 1382.1875 C-542.00746582 1381.70756592 -542.70243164 1381.22763184 -543.41845703 1380.7331543 C-550.66218131 1375.65505435 -557.47293199 1370.08221495 -564.27099609 1364.42919922 C-566.55066779 1362.54481654 -568.86671041 1360.70838628 -571.1875 1358.875 C-576.63809118 1354.52544644 -581.94911977 1350.01436171 -587.25292969 1345.48828125 C-589.06331799 1343.94606114 -590.87905158 1342.41029764 -592.6953125 1340.875 C-603.46817734 1331.74123692 -603.46817734 1331.74123692 -608.34130859 1326.65795898 C-609.91914107 1325.08082323 -611.54955051 1323.65999826 -613.2578125 1322.2265625 C-619.448705 1316.8427148 -625.19546157 1310.9905554 -630.99365234 1305.19165039 C-633.01772043 1303.16979898 -635.04969734 1301.15611673 -637.08203125 1299.14257812 C-638.36767498 1297.8598634 -639.65284889 1296.57667758 -640.9375 1295.29296875 C-641.54674316 1294.6909111 -642.15598633 1294.08885345 -642.78369141 1293.46855164 C-647 1289.22886078 -647 1289.22886078 -647 1287 C-647.66 1287 -648.32 1287 -649 1287 C-650.33984375 1285.671875 -650.33984375 1285.671875 -651.9375 1283.75 C-654.54981223 1280.67062155 -657.21534433 1277.66204075 -659.96508789 1274.7043457 C-664.7413996 1269.56577866 -669.29057087 1264.30754831 -673.69140625 1258.83984375 C-675.77083343 1256.28190202 -677.89038557 1253.76875494 -680.03417969 1251.26513672 C-685.41096462 1244.98099594 -690.55457401 1238.54797443 -695.53369141 1231.94335938 C-697.20845257 1229.7237292 -698.89172995 1227.51065273 -700.57421875 1225.296875 C-708.33767417 1215.04867776 -715.83417725 1204.67368478 -723 1194 C-723.82533469 1192.78112394 -724.65085399 1191.56237285 -725.4765625 1190.34375 C-736.73642789 1173.6605652 -747.19180316 1156.57463465 -757 1139 C-757.7105957 1137.73542969 -757.7105957 1137.73542969 -758.43554688 1136.4453125 C-778.28766206 1101.04373534 -795.4766273 1064.28811923 -809 1026 C-809.46971996 1024.67773203 -809.93944691 1023.35546654 -810.40917969 1022.03320312 C-817.31533911 1002.54124238 -823.68309449 982.99365892 -829 963 C-829.29712891 961.89237305 -829.59425781 960.78474609 -829.90039062 959.64355469 C-839.44086873 923.77842402 -845.85341427 887.21394911 -850.1875 850.375 C-850.4198938 848.43367187 -850.4198938 848.43367187 -850.65698242 846.453125 C-851.17221674 841.97462997 -851.60118553 837.49025998 -852 833 C-852.08827057 832.00635437 -852.17654114 831.01270874 -852.26748657 829.98895264 C-854.07233845 808.79207321 -854.34464585 787.66069489 -854.31567383 766.3984375 C-854.31105027 762.72676313 -854.31795791 759.05542071 -854.33618164 755.38378906 C-854.45706487 730.76325214 -853.58927999 706.48978437 -851 682 C-850.84297104 680.50512054 -850.84297104 680.50512054 -850.68276978 678.9800415 C-850.12852806 673.84774308 -849.47891402 668.735187 -848.75 663.625 C-848.59609802 662.51872757 -848.59609802 662.51872757 -848.43908691 661.3901062 C-842.60203757 619.59466129 -833.62068992 578.27947167 -821 538 C-820.78234985 537.3045105 -820.56469971 536.609021 -820.3404541 535.89245605 C-810.81113289 505.55102881 -799.62396667 475.75608 -786 447 C-785.54415527 446.03481445 -785.08831055 445.06962891 -784.61865234 444.07519531 C-781.59571932 437.69068109 -778.53505609 431.32534298 -775.44482422 424.97314453 C-774.53121944 423.09313795 -773.620951 421.21150315 -772.71533203 419.32763672 C-766.33373506 406.05772187 -759.13527774 393.37105623 -751.60742188 380.71972656 C-750.22121221 378.37428675 -748.85981341 376.01810076 -747.515625 373.6484375 C-740.33032306 361.03762497 -732.18542171 349.05500701 -724.05615234 337.04150391 C-722.34868736 334.51578569 -720.65044228 331.98435984 -718.95703125 329.44921875 C-709.61829581 315.56000355 -699.32530622 302.333915 -688.84155273 289.29541016 C-686.96520607 286.95663098 -685.10638491 284.60463985 -683.25 282.25 C-676.21689362 273.45514902 -668.79689409 264.95621701 -661.3046875 256.55078125 C-659.80049643 254.8212051 -659.80049643 254.8212051 -658 252 C-657.34 252 -656.68 252 -656 252 C-655.74605469 251.41734375 -655.49210938 250.8346875 -655.23046875 250.234375 C-653.86679667 247.75811967 -652.35774797 246.19479374 -650.3125 244.25 C-647.6497489 241.70998092 -645.18128021 239.08235937 -642.78125 236.296875 C-638.77008549 231.67427544 -634.51201075 227.32826141 -630.1875 223 C-629.42501953 222.22527344 -628.66253906 221.45054687 -627.87695312 220.65234375 C-627.14798828 219.92144531 -626.41902344 219.19054687 -625.66796875 218.4375 C-625.01078857 217.77621094 -624.3536084 217.11492187 -623.67651367 216.43359375 C-622 215 -622 215 -620 215 C-619.731875 214.360625 -619.46375 213.72125 -619.1875 213.0625 C-618 211 -618 211 -615 210 C-615 209.34 -615 208.68 -615 208 C-613.70703125 206.6953125 -613.70703125 206.6953125 -611.8125 205.125 C-608.57972528 202.38342427 -605.44098874 199.57219403 -602.34667969 196.67724609 C-597.01030193 191.68479615 -591.57309186 186.91633861 -585.87109375 182.33984375 C-583.17350675 180.1414021 -580.53675697 177.88931919 -577.90844727 175.609375 C-571.35785739 169.92771347 -564.66701478 164.51307313 -557.73339844 159.30371094 C-555.8930574 157.91956712 -554.05968143 156.52650424 -552.2265625 155.1328125 C-527.85137241 136.65548032 -502.47846639 119.3254154 -476 104 C-475.1740332 103.51901855 -474.34806641 103.03803711 -473.49707031 102.54248047 C-452.11700814 90.10964294 -430.46676429 78.35482447 -408 68 C-407.00822754 67.53803223 -406.01645508 67.07606445 -404.99462891 66.60009766 C-328.75654806 31.21640922 -245.84343872 8.91813819 -160.11151123 0.22003174 C-158.06505825 0.00677945 -156.02110447 -0.22247678 -153.97705078 -0.45751953 C-103.74614932 -6.16900963 -50.20474287 -5.68810207 0 0 Z " fill="#F14534" transform="translate(854,3)"/>
<path d="M0 0 C1.10617676 0.19335938 2.21235352 0.38671875 3.35205078 0.5859375 C37.69714803 6.74836946 73.19310532 17.66223287 100 41 C100.81855469 41.70898438 101.63710938 42.41796875 102.48046875 43.1484375 C105.02341234 45.39568998 107.51846406 47.68519226 110 50 C110.825 50.75925781 111.65 51.51851562 112.5 52.30078125 C144.14637658 82.51318139 154.49900315 127.47745549 161.17578125 169.02734375 C161.32375971 169.94224642 161.47173817 170.85714909 161.62420082 171.79977608 C165.47325039 195.60990946 169.06852885 219.4589844 172.64395142 243.31147003 C173.19706612 247.00131589 173.75084316 250.69106194 174.3046875 254.38079834 C202.7194912 443.76425775 202.7194912 443.76425775 212 559 C212.04699036 559.76615631 212.09398071 560.53231262 212.14239502 561.32168579 C212.90367446 574.02551626 213.21534837 586.70971057 213.24023438 599.43579102 C213.24998237 602.43208155 213.2811858 605.42769557 213.3125 608.42382812 C213.43489976 630.99688453 212.59034263 653.33673558 196.625 670.5625 C195.75875 671.366875 194.8925 672.17125 194 673 C193.40058594 673.58136719 192.80117188 674.16273438 192.18359375 674.76171875 C185.7425991 680.79940986 178.5865625 685.53595821 171 690 C169.67150024 690.82914917 169.67150024 690.82914917 168.31616211 691.67504883 C158.94422995 697.19410026 149.62909955 699.41370446 139.0625 701.5625 C137.24535924 701.94524195 135.42830349 702.32838768 133.61132812 702.71191406 C115.51145018 706.48026202 97.31180503 709.47699968 79 712 C77.74932739 712.17305664 77.74932739 712.17305664 76.47338867 712.34960938 C43.7449942 716.85314593 11.31267564 719.14580718 -21.72631836 719.45932007 C-24.25182809 719.48610127 -26.77725916 719.52217358 -29.30249023 719.56826782 C-44.08450349 719.81781094 -56.50580469 719.31806374 -70 713 C-70.95156982 712.58637207 -71.90313965 712.17274414 -72.88354492 711.74658203 C-75.24615656 710.68024822 -77.52836107 709.5367697 -79.8125 708.3125 C-80.99730957 707.68239014 -80.99730957 707.68239014 -82.20605469 707.03955078 C-89.53645242 702.97924677 -95.24541642 698.07735669 -101 692 C-101.99 691.01966797 -101.99 691.01966797 -103 690.01953125 C-113.29963025 679.23710583 -118.50524749 664.92270437 -123 651 C-123.39034424 649.79537109 -123.39034424 649.79537109 -123.78857422 648.56640625 C-133.4050481 618.07663491 -136.3692302 585.70902442 -139 554 C-139.16193848 552.09420166 -139.16193848 552.09420166 -139.32714844 550.14990234 C-140.09427018 540.77526141 -140.58253052 531.39518759 -141 522 C-141.04147156 521.09570251 -141.08294312 520.19140503 -141.12567139 519.25970459 C-143.88144114 458.58038878 -143.72402638 397.7894977 -143.99094677 337.05961037 C-143.99698297 335.68637385 -144.00305916 334.31313751 -144.0091753 332.93990135 C-144.09577516 313.49423216 -144.15274963 294.04871407 -144.1807785 274.60286331 C-144.18737006 270.88577328 -144.19744135 267.16870864 -144.20855713 263.45162964 C-144.27742256 238.85145573 -144.11983944 214.29589828 -143.07421875 189.71484375 C-143.03260305 188.73603556 -142.99098736 187.75722736 -142.94811058 186.74875832 C-137.21547258 55.46978613 -137.21547258 55.46978613 -96.3359375 17.52734375 C-68.94769311 -5.57907652 -33.78887734 -5.9847458 0 0 Z " fill="#F14534" transform="translate(817,831)"/>
<path d="M0 0 C7.90298907 3.69639146 14.82361629 8.89598743 21.02734375 15.01171875 C21.02734375 15.67171875 21.02734375 16.33171875 21.02734375 17.01171875 C21.68734375 17.01171875 22.34734375 17.01171875 23.02734375 17.01171875 C65.31908094 60.0939557 109.73683349 152.27228133 109.3125 213.921875 C108.99586102 220.58084047 107.09166912 226.70161781 105.02734375 233.01171875 C104.80820313 233.85476563 104.5890625 234.6978125 104.36328125 235.56640625 C101.92737435 243.0882726 95.13539486 247.13624424 89.00683594 251.5703125 C87.06740998 252.98254373 85.15773554 254.42695146 83.25390625 255.88671875 C67.41285885 268.00308339 51.01806627 279.22910525 34.06884766 289.73242188 C32.21962106 290.89122926 30.39083134 292.07410555 28.5703125 293.27734375 C27.60738281 293.9115625 26.64445312 294.54578125 25.65234375 295.19921875 C24.86085938 295.72902344 24.069375 296.25882813 23.25390625 296.8046875 C18.75979733 299.2409676 14.05577756 299.35850729 9.02734375 299.01171875 C0.4648526 296.10917938 -2.84308906 291.13682059 -6.68920898 283.37158203 C-25.92186553 242.80481773 -31.69849975 194.37517346 -35.97265625 150.01171875 C-36.09125 148.78227539 -36.20984375 147.55283203 -36.33203125 146.28613281 C-37.89956337 129.03861426 -38.17105523 111.81917112 -38.22265625 94.51171875 C-38.22801392 93.51372253 -38.23337158 92.51572632 -38.2388916 91.48748779 C-38.31386151 73.10888029 -37.65638006 54.54154029 -34.16015625 36.44921875 C-33.98983887 35.54993652 -33.81952148 34.6506543 -33.64404297 33.72412109 C-31.03836192 20.63942751 -27.44782137 7.98058342 -15.97265625 0.01171875 C-11.09160734 -2.4288057 -5.0234175 -1.67007178 0 0 Z " fill="#F14534" transform="translate(1152.97265625,1144.98828125)"/>
<path d="M0 0 C8.80835692 3.65224555 13.48156889 13.32700419 17.05712891 21.62597656 C44.5444865 90.83547041 46.60274584 174.47305238 50 248 C50.08677002 249.8250708 50.08677002 249.8250708 50.17529297 251.68701172 C54.7802509 350.41348367 54.7802509 350.41348367 34.25390625 378.37890625 C32 380 32 380 28.76049805 379.7331543 C25.2012076 379.03922784 21.98832429 378.11186591 18.578125 376.890625 C17.38703125 376.46523437 16.1959375 376.03984375 14.96875 375.6015625 C13.7415625 375.15554688 12.514375 374.70953125 11.25 374.25 C9.43242188 373.60417969 9.43242188 373.60417969 7.578125 372.9453125 C4.03545953 371.67025833 0.51493445 370.34947476 -3 369 C-4.05928711 368.60272705 -5.11857422 368.2054541 -6.20996094 367.79614258 C-10.70232497 365.96874657 -13.40766875 364.78944811 -16.359375 360.85546875 C-16.81828125 359.64503906 -17.2771875 358.43460938 -17.75 357.1875 C-18.01474121 356.50155762 -18.27948242 355.81561523 -18.55224609 355.10888672 C-19.42856259 352.75607225 -20.2215255 350.38691972 -21 348 C-21.29358398 347.11812012 -21.58716797 346.23624023 -21.88964844 345.32763672 C-26.95527059 329.82531918 -30.35051027 314.07668353 -33 298 C-33.18159668 296.90187988 -33.36319336 295.80375977 -33.55029297 294.67236328 C-46.91572766 211.54056907 -53.95075518 99.03515531 -15 7 C-10.26356654 1.69970541 -7.25833936 -0.62571891 0 0 Z " fill="#F14534" transform="translate(512,1140)"/>
</svg>
